# xmcd CD database file
#
# Track frame offsets:
#	150
#	24510
#	51510
#	74428
#	105027
#	123982
#	145998
#	164710
#	198902
#	225868
#
# Disc length: 3363 seconds
#
# Revision: 0
# Processed by: cddbd v1.5.2PL0 Copyright (c) Steve Scherf et al.
# Submitted via: CDex 1.70beta2
#
DISCID=830d210a
DTITLE=Peter Kral - Windmill
DYEAR=1998
DGENRE=Jazz
TTITLE0=Windmill
TTITLE1=The Days Of Wine And Roses
TTITLE2=Bear's Trail
TTITLE3=That's All
TTITLE4=Blues For My Family
TTITLE5=It's A Blue World
TTITLE6=Afternoon In Paris
TTITLE7=You Don't Know What Love Is
TTITLE8=Pierrot
TTITLE9=Early Autumn
EXTD=YEAR: 1998
EXTT0=
EXTT1=
EXTT2=
EXTT3=
EXTT4=
EXTT5=
EXTT6=
EXTT7=
EXTT8=
EXTT9=
PLAYORDER=
